<svg width="40" height="40" viewBox="0 0 40 40" fill="none" xmlns="http://www.w3.org/2000/svg">
  <circle cx="20" cy="20" r="20" fill="#0052FF"/>
  <path d="M20 8C13.373 8 8 13.373 8 20C8 26.627 13.373 32 20 32C26.627 32 32 26.627 32 20C32 13.373 26.627 8 20 8ZM17.188 16.563C17.188 16.044 17.607 15.625 18.125 15.625H21.875C22.394 15.625 22.813 16.044 22.813 16.563V16.875H24.688V16.563C24.688 15.007 23.431 13.75 21.875 13.75H18.125C16.569 13.75 15.313 15.007 15.313 16.563V23.438C15.313 24.993 16.569 26.25 18.125 26.25H21.875C23.431 26.25 24.688 24.993 24.688 23.438V23.125H22.813V23.438C22.813 23.956 22.394 24.375 21.875 24.375H18.125C17.607 24.375 17.188 23.956 17.188 23.438V16.563Z" fill="white"/>
</svg>
