<?xml version="1.0" encoding="UTF-8"?>
<svg version="1.1" xmlns="http://www.w3.org/2000/svg" width="500" height="500">
<path d="M0 0 C1.0859697 0.00424484 1.0859697 0.00424484 2.19387817 0.00857544 C4.4861974 0.01969163 6.77811313 0.04477938 9.0703125 0.0703125 C10.63280682 0.0803534 12.19530732 0.08947731 13.7578125 0.09765625 C17.57046588 0.11960277 21.38282098 0.15407237 25.1953125 0.1953125 C25.2250415 1.70714111 25.2250415 1.70714111 25.25537109 3.24951172 C25.33215457 7.03310736 25.42075166 10.81635432 25.51269531 14.59960938 C25.55068761 16.22877049 25.585589 17.85800702 25.6171875 19.48730469 C25.77081127 39.42420425 25.77081127 39.42420425 35.2421875 56.4296875 C44.80546765 65.4653384 54.70150143 66.54277865 67.5625 66.40625 C76.7275415 65.8740863 85.40170849 63.65259948 92.1953125 57.1953125 C105.00240524 40.0090203 101.56859574 22.13039909 102.1953125 0.1953125 C147.7353125 0.1953125 193.2753125 0.1953125 240.1953125 0.1953125 C240.5253125 11.7453125 240.8553125 23.2953125 241.1953125 35.1953125 C243.58038909 47.12069544 246.31832557 54.07415202 256.1328125 61.3828125 C266.79067232 67.69052545 281.08575145 67.63257667 292.9140625 64.88671875 C302.74413679 61.90739829 308.26928066 56.01886404 313.1953125 47.1953125 C316.30490064 40.82065681 316.35215414 33.82001427 316.51171875 26.85546875 C316.5428904 25.70503334 316.5428904 25.70503334 316.57469177 24.53135681 C316.63952082 22.10692378 316.69875871 19.68239237 316.7578125 17.2578125 C316.80106129 15.60350588 316.84467749 13.94920883 316.88867188 12.29492188 C316.99513274 8.26181684 317.09658312 4.22861391 317.1953125 0.1953125 C321.71185625 0.09543996 326.22779239 0.0233782 330.74511719 -0.02441406 C332.27745784 -0.04436474 333.80972402 -0.07153566 335.34179688 -0.10644531 C347.5251496 -0.37683304 357.22143775 0.57109632 366.44140625 9.26953125 C372.50595906 15.92838322 375.44994595 22.97527231 375.43582153 32.02902222 C375.43838481 33.02288994 375.43838481 33.02288994 375.44099987 34.03683579 C375.44427786 36.24325664 375.43331934 38.44936917 375.42236328 40.65576172 C375.4217988 42.24283338 375.42211645 43.82990557 375.42324829 45.41697693 C375.42382136 49.71611726 375.41207437 54.01514565 375.39810038 58.31426001 C375.38558549 62.81058527 375.38442192 67.30691318 375.38204956 71.80325317 C375.37583702 80.31353501 375.35942925 88.82376537 375.33935058 97.33402455 C375.31698455 107.02441949 375.30599638 116.71481691 375.29595971 126.40523124 C375.27506284 146.33528704 375.23989124 166.26529652 375.1953125 186.1953125 C374.46006348 186.13472656 373.72481445 186.07414063 372.96728516 186.01171875 C369.58528643 185.73542035 366.20281833 185.46532915 362.8203125 185.1953125 C361.08587891 185.05222656 361.08587891 185.05222656 359.31640625 184.90625 C358.17558594 184.81601563 357.03476562 184.72578125 355.859375 184.6328125 C354.82248535 184.54902344 353.7855957 184.46523437 352.71728516 184.37890625 C348.21565758 184.14424495 343.70305216 184.1953125 339.1953125 184.1953125 C339.1953125 160.1053125 339.1953125 136.0153125 339.1953125 111.1953125 C228.6453125 111.1953125 118.0953125 111.1953125 4.1953125 111.1953125 C4.2984375 141.9884375 4.4015625 172.7815625 4.5078125 204.5078125 C4.53270752 214.22259033 4.55760254 223.93736816 4.58325195 233.9465332 C4.61982612 242.67221197 4.61982612 242.67221197 4.6603241 251.39787292 C4.67822496 255.2774018 4.68785911 259.15685566 4.69242859 263.03642273 C4.69854051 267.99327182 4.71894905 272.94987314 4.74947393 277.90662992 C4.75825379 279.72062363 4.76211651 281.53464983 4.76035178 283.34866393 C4.6583815 298.78851891 4.6583815 298.78851891 9.8828125 313.1328125 C16.70712575 319.21936216 24.17134527 320.30535274 33.10494995 320.35353088 C34.11106833 320.36093785 34.11106833 320.36093785 35.13751233 320.36849445 C37.37145769 320.38377847 39.60537453 320.3922052 41.83935547 320.40063477 C43.44613391 320.41022046 45.05290987 320.42023094 46.65968323 320.43063354 C51.01247895 320.45761382 55.36528544 320.47866052 59.71811819 320.49863553 C64.27052352 320.52053761 68.82289592 320.54790561 73.37527466 320.57469177 C81.99176165 320.62456164 90.60826697 320.6695216 99.22478974 320.71271414 C109.03613033 320.76213533 118.84743787 320.81703533 128.65874648 320.87239373 C148.83757102 320.98612616 169.01642712 321.09298417 189.1953125 321.1953125 C189.19023682 321.99752731 189.18516113 322.79974213 189.17993164 323.62626648 C189.17598389 324.69021133 189.17203613 325.75415619 189.16796875 326.8503418 C189.16289307 327.90005661 189.15781738 328.94977142 189.15258789 330.03129578 C189.21594935 334.72359662 189.68391455 339.34648933 190.1953125 344.0078125 C190.38602769 345.78481412 190.57359622 347.56215665 190.7578125 349.33984375 C190.84160156 350.10659424 190.92539063 350.87334473 191.01171875 351.66333008 C191.24238701 354.84452757 191.20626122 358.00671568 191.1953125 361.1953125 C165.40440758 361.28879114 139.61352809 361.3593091 113.82248783 361.40256119 C101.84701433 361.42317848 89.87164614 361.4512833 77.89624023 361.49707031 C67.45738178 361.5369634 57.0185996 361.56275137 46.57966703 361.57166648 C41.05330584 361.57687699 35.52716286 361.58910655 30.00087166 361.61823273 C24.79622301 361.6454407 19.59188189 361.65374654 14.38716888 361.64774323 C12.48005183 361.64884105 10.57292418 361.65676271 8.66586876 361.6721344 C-9.77483118 361.8134473 -9.77483118 361.8134473 -16.8046875 357.1953125 C-17.68640625 356.65390625 -18.568125 356.1125 -19.4765625 355.5546875 C-26.33006265 350.24708964 -30.58932729 344.65004177 -32.8046875 336.1953125 C-33.10679932 332.04232738 -33.08298514 327.89677718 -33.07211304 323.73431396 C-33.07664415 322.46625829 -33.08117526 321.19820261 -33.08584368 319.89172101 C-33.0980622 316.37866751 -33.09781458 312.86570933 -33.09545493 309.35263944 C-33.09504647 305.56109227 -33.10608875 301.76957555 -33.11557007 297.9780426 C-33.13217505 290.55192453 -33.1376794 283.12583821 -33.13879482 275.69970313 C-33.1397456 269.66207421 -33.14385734 263.62445575 -33.15019608 257.58683014 C-33.16780759 240.46295901 -33.17703516 223.33911295 -33.17553513 206.2152327 C-33.17545522 205.29229673 -33.1753753 204.36936076 -33.17529297 203.41845703 C-33.17521121 202.49439195 -33.17512945 201.57032687 -33.17504521 200.61825982 C-33.17423247 185.64564514 -33.19336727 170.6731311 -33.2215697 155.70054552 C-33.25031 140.32083133 -33.26410935 124.94116621 -33.26238215 109.56142449 C-33.26171861 100.92929093 -33.26719483 92.29726285 -33.28873825 83.6651535 C-33.3069652 76.31486952 -33.31128504 68.96473884 -33.2977194 61.61444202 C-33.29119717 57.86631094 -33.29104524 54.11847383 -33.3084259 50.37037086 C-33.32709971 46.30144089 -33.31458272 42.23318913 -33.29916382 38.16424561 C-33.30945094 36.98738182 -33.31973807 35.81051803 -33.33033693 34.5979917 C-33.25074582 25.08309765 -31.20126175 16.88977682 -24.57421875 9.79296875 C-17.18926151 3.1253142 -10.01737935 -0.1496744 0 0 Z " fill="#040404" transform="translate(33.8046875,43.8046875)"/>
<path d="M0 0 C26.43378121 21.57623327 44.04713468 49.37988991 48.23828125 83.60498047 C50.2561217 115.24423825 44.00461226 148.18847781 22.734375 172.92529297 C21.91066406 173.80958984 21.08695313 174.69388672 20.23828125 175.60498047 C19.66223145 176.22727539 19.08618164 176.84957031 18.49267578 177.49072266 C-1.20582103 198.56171577 -28.24172363 217.60508661 -58.24560547 218.91137695 C-59.81067365 218.94434992 -61.37602676 218.9654584 -62.94140625 218.97607422 C-63.79364777 218.98510269 -64.64588928 218.99413116 -65.5239563 219.00343323 C-67.3206232 219.01785157 -69.11734159 219.02680134 -70.9140625 219.03051758 C-73.59601327 219.04230162 -76.27557192 219.09147298 -78.95703125 219.14208984 C-94.3528533 219.28714786 -108.99816989 216.50307303 -123.01171875 209.91748047 C-123.74003906 209.58353271 -124.46835937 209.24958496 -125.21875 208.90551758 C-137.05806386 203.28570414 -147.39510246 195.75163708 -156.76171875 186.60498047 C-157.60734375 185.77998047 -158.45296875 184.95498047 -159.32421875 184.10498047 C-160.12859375 183.27998047 -160.93296875 182.45498047 -161.76171875 181.60498047 C-162.41527344 181.00814453 -163.06882812 180.41130859 -163.7421875 179.79638672 C-183.38265902 161.37288074 -195.02918566 131.57653743 -196.08203125 105.06982422 C-196.95882143 68.02353295 -185.08842697 36.97188283 -159.63671875 9.97998047 C-117.0978477 -31.10663894 -47.02443185 -37.23636413 0 0 Z M-105.76171875 24.60498047 C-106.66535156 24.98654297 -107.56898438 25.36810547 -108.5 25.76123047 C-127.98158954 34.72942721 -142.27649422 52.90107667 -149.76171875 72.60498047 C-151.10415411 76.90665289 -152.04946296 81.15758804 -152.76171875 85.60498047 C-152.99181641 87.03003906 -152.99181641 87.03003906 -153.2265625 88.48388672 C-155.77983573 109.56990718 -148.89026648 129.56534664 -136.38671875 146.35498047 C-123.04155732 162.5986385 -105.84597233 173.66633269 -84.76171875 176.60498047 C-63.28710956 178.51267438 -43.28921914 174.2055884 -25.82421875 161.16748047 C-24.44958798 160.00373056 -23.09500609 158.8158762 -21.76171875 157.60498047 C-21.03984375 156.97462891 -20.31796875 156.34427734 -19.57421875 155.69482422 C-9.64892885 146.47602197 -1.98891228 134.4583982 2.23828125 121.60498047 C2.55539062 120.66138672 2.8725 119.71779297 3.19921875 118.74560547 C8.99807229 98.21021586 5.40644114 76.69465258 -4.62890625 58.22998047 C-7.49389948 53.2220866 -10.85339031 48.84440118 -14.76171875 44.60498047 C-15.91994141 43.326875 -15.91994141 43.326875 -17.1015625 42.02294922 C-31.40867823 26.94736281 -50.58724501 18.78035775 -71.25 17.60888672 C-83.47680013 17.59528627 -94.47414181 19.78146933 -105.76171875 24.60498047 Z " fill="#040404" transform="translate(450.76171875,281.39501953125)"/>
<path d="M0 0 C9.24 0 18.48 0 28 0 C28 14.19 28 28.38 28 43 C42.19 43 56.38 43 71 43 C71 52.24 71 61.48 71 71 C56.81 71 42.62 71 28 71 C28 85.19 28 99.38 28 114 C18.76 114 9.52 114 0 114 C0 99.81 0 85.62 0 71 C-14.19 71 -28.38 71 -43 71 C-43 61.76 -43 52.52 -43 43 C-28.81 43 -14.62 43 0 43 C0 28.81 0 14.62 0 0 Z " fill="#030303" transform="translate(361,324)"/>
<path d="M0 0 C1.68609375 -0.04253906 1.68609375 -0.04253906 3.40625 -0.0859375 C12.64012769 -0.107767 12.64012769 -0.107767 16.2890625 2.78125 C20.32730593 7.48127914 20.87864658 10.4227099 20.91552734 16.65185547 C20.92224457 17.36456604 20.92896179 18.07727661 20.93588257 18.81158447 C20.95485262 21.16352342 20.95878624 23.51517685 20.9609375 25.8671875 C20.96736621 27.50619625 20.97409463 29.14520386 20.98110962 30.78421021 C20.99307994 34.21896016 20.99679071 37.65360956 20.99560547 41.08837891 C20.99540231 45.48227093 21.02270175 49.87551594 21.05714989 54.26925468 C21.07942529 57.65454042 21.08344282 61.03967061 21.08238602 64.42502213 C21.08474112 66.04449823 21.09355958 67.66397869 21.10905075 69.28338242 C21.12872437 71.55249638 21.12286866 73.8202174 21.11083984 76.08935547 C21.11368988 77.37856903 21.11653992 78.66778259 21.11947632 79.99606323 C20.53621278 84.1291602 19.22178015 86.27012716 16.625 89.5 C11.48403539 93.14344639 6.32493283 93.01711249 0.25 93 C-0.6575 93.02835937 -1.565 93.05671875 -2.5 93.0859375 C-8.84619019 93.10422623 -13.63834587 91.9202886 -18.375 87.5 C-20.75428006 83.87696258 -20.6402955 80.60979353 -20.66552734 76.34814453 C-20.67224457 75.63543396 -20.67896179 74.92272339 -20.68588257 74.18841553 C-20.70485262 71.83647658 -20.70878624 69.48482315 -20.7109375 67.1328125 C-20.71736621 65.49380375 -20.72409463 63.85479614 -20.73110962 62.21578979 C-20.74307994 58.78103984 -20.74679071 55.34639044 -20.74560547 51.91162109 C-20.74540231 47.51772907 -20.77270175 43.12448406 -20.80714989 38.73074532 C-20.82942529 35.34545958 -20.83344282 31.96032939 -20.83238602 28.57497787 C-20.83474112 26.95550177 -20.84355958 25.33602131 -20.85905075 23.71661758 C-20.87872437 21.44750362 -20.87286866 19.1797826 -20.86083984 16.91064453 C-20.86368988 15.62143097 -20.86653992 14.33221741 -20.86947632 13.00393677 C-20.177434 8.10001632 -17.98204986 5.06361608 -14.47802734 1.65429688 C-10.10556772 -0.7456322 -4.86633642 -0.01108505 0 0 Z " fill="#070707" transform="translate(312.375,-0.5)"/>
<path d="M0 0 C1.68029297 -0.061875 1.68029297 -0.061875 3.39453125 -0.125 C8.78583338 -0.17592139 12.7091339 -0.18474317 16.984375 3.34375 C20.98430465 7.30178267 20.88545986 11.09525307 20.92700195 16.53833008 C20.93685875 17.6071769 20.93685875 17.6071769 20.94691467 18.69761658 C20.96661934 21.05492258 20.97830375 23.41216496 20.98828125 25.76953125 C20.99235678 26.57570074 20.9964323 27.38187023 21.00063133 28.2124691 C21.02147976 32.47928994 21.03578691 36.74607872 21.04516602 41.01293945 C21.05622946 45.41466859 21.09063174 49.81589208 21.13033772 54.21744251 C21.1565103 57.60699896 21.16485838 60.996435 21.16844749 64.3860836 C21.17331162 66.00836287 21.18492074 67.63063682 21.20348549 69.25281715 C21.22789238 71.52677887 21.22690987 73.79943313 21.2199707 76.07348633 C21.22583694 77.36571609 21.23170319 78.65794586 21.23774719 79.98933411 C20.66240171 84.1305076 19.35166527 86.26572714 16.75 89.5 C11.5788146 93.1836908 6.36341697 92.98439511 0.25 92.9375 C-0.67425781 92.95748047 -1.59851563 92.97746094 -2.55078125 92.99804688 C-8.26316667 92.99396076 -11.83720504 92.48377323 -16.25 88.5 C-19.34541489 84.36191418 -19.63285471 81.25565496 -19.65405273 76.14282227 C-19.66091599 75.4202121 -19.66777924 74.69760193 -19.67485046 73.95309448 C-19.69309138 71.57399623 -19.68928499 69.19555916 -19.68359375 66.81640625 C-19.68815696 65.1564055 -19.69346295 63.49640664 -19.69947815 61.83641052 C-19.70840398 58.36050737 -19.70599233 54.88483404 -19.69604492 51.40893555 C-19.68455741 46.96235231 -19.70476555 42.51656347 -19.73396206 38.07008457 C-19.75233986 34.64274587 -19.75202846 31.21559698 -19.74632454 27.78822136 C-19.74617151 26.14921899 -19.7522008 24.5102036 -19.76461601 22.87124825 C-19.77955437 20.57585465 -19.76882988 18.28192129 -19.75170898 15.98657227 C-19.75154282 14.68261002 -19.75137665 13.37864777 -19.75120544 12.03517151 C-19.16165064 7.87684205 -17.87884697 5.73961832 -15.25 2.5 C-10.52382304 -0.65078464 -5.56077751 0.05049514 0 0 Z " fill="#020202" transform="translate(97.25,-0.5)"/>
<path d="M0 0 C6.64895695 4.64280615 11.78031811 11.24683621 13.375 19.3125 C14.39156759 29.80448151 13.28497956 38.6272824 6.6875 47.0625 C-0.27552185 54.50027334 -8.16555029 58.23606359 -18.3125 58.75 C-27.50380982 58.54319553 -34.92329144 55.3254715 -41.625 49.0625 C-48.079441 42.04680327 -50.98773647 34.07969894 -50.84375 24.55859375 C-49.91949872 15.06851369 -45.72237435 7.60335454 -38.625 1.3125 C-25.98804123 -7.7400626 -13.15750079 -8.03461363 0 0 Z " fill="#080808" transform="translate(316.625,186.6875)"/>
<path d="M0 0 C0.73992187 0.39058594 1.47984375 0.78117188 2.2421875 1.18359375 C9.57306543 5.54015925 14.11473541 11.57372661 17.4375 19.375 C19.19136437 30.67768151 17.91712587 40.12218302 11.12890625 49.6171875 C5.25414019 56.19261374 -1.90865686 60.35974203 -10.67578125 61.28125 C-20.72197862 61.8024535 -29.46893156 58.7165602 -37 52 C-44.31557903 43.03251602 -47.12522616 34.5491963 -46 23 C-44.30102172 14.915695 -39.37249919 7.3249822 -32.625 2.625 C-22.38189513 -3.51063686 -11.05169941 -5.88379948 0 0 Z " fill="#070707" transform="translate(219,184)"/>
<path d="M0 0 C0.73992187 0.39058594 1.47984375 0.78117187 2.2421875 1.18359375 C10.2520719 5.94367657 15.54945942 12.99941638 18 22 C19.27102185 32.30196655 17.12947861 41.15134516 11.1328125 49.64453125 C8.93879317 52.06759656 6.94217768 53.55072854 4.125 55.1875 C3.30257812 55.67605469 2.48015625 56.16460937 1.6328125 56.66796875 C-6.62110638 60.84391287 -15.47136098 61.5360857 -24.40234375 59.0546875 C-29.90946606 56.88995957 -34.23880991 54.70148761 -38 50 C-38.680625 49.278125 -39.36125 48.55625 -40.0625 47.8125 C-45.92140127 39.30764331 -47.37558745 30.6885513 -45.5625 20.5546875 C-43.26544212 12.31399235 -38.15039312 6.03796983 -30.9375 1.5625 C-21.09168372 -3.76634509 -10.2477598 -5.45579115 0 0 Z " fill="#060606" transform="translate(219,278)"/>
<path d="M0 0 C7.90195838 5.70244419 12.14961773 13.51679087 14 23 C15.03041254 30.54204736 12.82791804 37.77067814 9.125 44.3125 C3.68372511 51.19411236 -3.21588284 57.14182137 -12 59 C-21.88618941 60.09190749 -30.26519433 58.20362207 -38.35546875 52.2734375 C-45.33494345 45.90941366 -49.09473218 38.45040097 -49.53881836 28.9765625 C-49.65659889 18.52445098 -47.04929045 11.44645355 -39.92578125 3.7890625 C-28.16026172 -7.14117674 -13.8055948 -7.61411615 0 0 Z " fill="#050505" transform="translate(130,186)"/>
<path d="M0 0 C0.73992187 0.39058594 1.47984375 0.78117187 2.2421875 1.18359375 C9.47025717 5.47906276 15.08053064 11.86221078 17.4375 20.0625 C18.8069677 29.64877392 17.97164894 37.75008688 13.125 46.3125 C7.57947721 53.32595529 1.45864429 57.1804519 -7 60 C-17.48489053 60.97728673 -26.55438753 59.80215612 -35.16015625 53.390625 C-41.17788817 47.82007061 -44.70816798 40.82084055 -45.203125 32.64453125 C-45.32519072 22.66565892 -44.98149201 14.25742909 -37.87109375 6.6328125 C-27.31028255 -2.58309372 -12.94794819 -6.89334084 0 0 Z " fill="#040404" transform="translate(126,278)"/>
<path d="M0 0 C0.66 0.33 1.32 0.66 2 1 C-0.08454772 3.12903502 -2.23822245 5.12312495 -4.5 7.0625 C-5.0878125 7.56910156 -5.675625 8.07570312 -6.28125 8.59765625 C-8 10 -8 10 -11 12 C-8.84618556 6.71336455 -4.57763162 3.22129633 0 0 Z " fill="#3A3A3A" transform="translate(189,185)"/>
<path d="M0 0 C0.66 0.33 1.32 0.66 2 1 C-1.33333333 4.33333333 -4.66666667 7.66666667 -8 11 C-8 7.0234755 -6.61988497 5.9109833 -4 3 C-1.75 1.1875 -1.75 1.1875 0 0 Z " fill="#2A2A2A" transform="translate(187,280)"/>
</svg>
